<?xml version="1.0" encoding="UTF-8"?>
<svg id="Layer_1" data-name="Layer 1" xmlns="http://www.w3.org/2000/svg" version="1.1" viewBox="0 0 1080 1080">
  <defs>
    <style>
      .cls-1 {
        fill: #f1f2f2;
        stroke-width: 0px;
      }
    </style>
  </defs>
  <path class="cls-1" d="M184.8,832.8c0-55.7,47.6-107.7,107.4-109.7,60.6-2,113.3,48,114.2,110.5.8,58-48.9,108.9-107.3,110.9-61.1,2.1-114.4-49.6-114.4-111.8h0ZM232.5,833c-.6,33.4,29.8,64.5,63.6,64.1,33.2-.3,63.3-30.9,62.9-63.9-.4-33.9-30.7-63.3-64-63-33.8.4-63.3,31.8-62.5,62.8h0Z"/>
  <path class="cls-1" d="M540.6,607.5c-6.9,2.8-12.5,7.7-19,11.3-26,14.4-53.4,24.4-82.7,29.6-17.8,3.1-35.8,4.3-53.9,3.6-33.4-1.2-65.4-8.6-96-22.3-20.7-9.3-39.9-21-57.4-35.3-19.4-15.8-36.3-34.1-50.4-54.8-19.9-29.1-33.4-60.9-40.4-95.5-4.2-21.1-5.9-42.4-4.7-63.9,2-35.3,10.5-69,26.2-100.7,15.2-30.8,35.9-57.6,61.7-80.2,35-30.7,75.5-50.7,121.2-59.6,26.6-5.2,53.4-5.9,80.4-2.8,33,3.8,64,14.1,93.2,29.8,6.3,3.4,12.5,7,18.3,11.1,1.2.9,2.4,1.8,4.1,1.6,0,.7-1.8.8-1.1,1,5.6,1.7,9.2,6.6,14.1,9.2,9,8.1,18.3,15.9,26.7,24.7,12.3,12.9,23.5,26.7,32.9,41.8,19.6,31.4,31.9,65.6,37,102.3,3.5,25.1,3.1,50.2-.7,75.2-3.3,21.8-9.6,42.9-18.5,63.2-13.9,31.6-33.1,59.3-58.1,83.1-6.3,6-13.3,11.3-19.5,17.5-4.2,3.8-9.8,5.7-13.4,10.2h0ZM539.2,587.3c1.8,0,3-1.1,4.3-2.2,18.3-14.4,34.3-30.9,47.9-49.9,23.5-32.8,38-69,43.5-109,3.2-23.1,3.1-46.2-.5-69.2-5.6-36.7-19-70.4-40.1-101-12.8-18.5-28-34.9-45.2-49.4-3.1-2.6-5.8-5.9-10-6.9-.2-1.7-2-2-3-2.9-3.1-2.6-6.3-5.2-10.2-6.7-.3-.9-1.2-1.3-1.9-1.7-17.5-11.2-36.1-20-56-26.2-30-9.5-60.6-12.9-91.9-10.6-27.1,1.9-53.2,8.2-78,19.1-43.1,18.9-78,47.9-104.6,86.9-15.9,23.2-27.2,48.5-34.1,75.6-8,31.4-9.6,63.2-4.9,95.3,4.2,29,13.2,56.3,27.3,81.8,16.6,30.2,38.7,55.9,66.3,76.7,18.5,13.9,38.6,25.2,60.3,33.4,19.7,7.5,40.2,12.4,61.2,14.3,15.4,1.4,30.7,1.6,46.1.3,13.5-1.2,26.9-3.2,39.9-6.6,25.2-6.6,48.9-17,70.8-31.2,4.6-2.7,8.3-6.8,13.5-8.5.6-.2-.4-1-.7-1.4h0Z"/>
  <path class="cls-1" d="M464.9,817.8c2.5-2.6,4.9-5.2,7.8-7.4,8.5-6.4,18.1-9.7,28.6-11.1,32.4-4.1,58.5,12.4,71.6,38.8,15.1,30.4,9.3,64.5-15.2,87.9-16.9,16.1-37.4,21.5-60.3,17.6-12-2.1-23.3-6.1-31.3-16.1-.4-.5-.8-1.1-1.5-.8-.7.3-.7,1-.7,1.6,0,3.4-.1,6.8,0,10.2.1,2.5-.9,3.4-3.2,3.4-13.9,0-27.8,0-41.7,0-1.7,0-2.6-.6-2.5-2.4,0-.9,0-1.8,0-2.6,0-76,0-151.9,0-227.9,0-3.5.8-4.8,4.5-4.8,13,.2,26.1.2,39.1,0,2.9,0,3.9.9,3.9,3.8,0,35.2,0,70.4,0,105.7s-.4,2.8.9,4.2h0ZM497.1,837.4c-17.8,0-33.1,15.2-33.2,33-.1,20.3,14.1,36,32.8,36.2,18.2.2,34.1-15.7,33.7-34.2-.5-21.7-16.9-35.5-33.3-35h0Z"/>
  <path class="cls-1" d="M554.1,189.6c-5-2.7-8.5-7.5-14.1-9.2-.7-.2,1-.3,1.1-1,14.3-10.1,29.7-18.2,45.8-24.8,29.4-12.1,59.8-18.5,91.7-19.4,51.1-1.4,98.3,11.3,141.8,37.5,33.9,20.4,61.3,47.8,82.8,81.1,21.2,32.9,34.3,68.7,39,107.5,5,40.8,1,80.8-13.1,119.5-12.1,33.3-30.1,63.1-54.5,89.1-28.5,30.5-62.5,52.7-101.5,67.1-22.6,8.3-45.9,13.1-70,14.6-30.8,2-61-1-90.6-9.9-23.7-7.1-46-17.2-66.7-30.6-1.8-1.2-3.5-2.3-5.3-3.5,3.6-4.5,9.2-6.4,13.4-10.2,10.6,6.9,21.7,13,33.2,18.1,30.5,13.7,62.6,20.2,95.9,20.7,14.8.2,29.5-1.1,44.1-3.6,23.4-3.9,45.7-11.2,66.8-21.9,24.3-12.3,46.1-28,65.2-47.6,21.8-22.4,38.6-48,50.6-76.6,10.1-24.1,15.8-49.2,17.7-75.3,1.6-22.8.4-45.4-4.4-67.6-7.9-36.9-23.5-70.4-47-100.1-14.5-18.3-31.2-34.2-50.2-47.7-32.6-23.1-68.5-37.5-108.2-42.8-27.5-3.6-54.8-2.8-81.8,2.8-29.3,6.1-56.7,17.2-81.9,33.7h0Z"/>
  <path class="cls-1" d="M700.2,818.2c0-4.1.2-8.2,0-12.2-.1-2.7.8-3.4,3.4-3.3,13.4.1,26.8.2,40.2,0,3.2,0,3.9.9,3.9,4,0,42,0,84,0,126,0,2.3-.1,4.5,0,6.8.2,2.2-.7,2.7-2.8,2.7-14,0-28.1,0-42.1,0-2,0-2.6-.6-2.6-2.6.1-4.3,0-8.7,0-13-1.9,1.7-3.7,3.2-5.4,4.8-10.8,9.5-23.8,12.9-37.7,13.7-36.1,2.2-65.9-23-72.6-58.6-6.3-33.5,9.6-66.5,39.3-80.3,24.3-11.3,48.4-9.8,70.2,7.2,1.9,1.5,3.3,3.7,5,5.6.4-.2.8-.4,1.2-.6h0ZM700.1,872.4c0-19.1-14.8-34.9-32.8-35-18.3,0-33.4,15.4-33.5,34.3-.1,19.5,14.7,35.4,33.2,35.5,17.9.1,33-15.8,33.1-34.8h0Z"/>
  <path class="cls-1" d="M776.7,890c6.9,0,13.8,0,20.7,0,1.2,0,2.6-.4,2.7,1.6.2,12.2,8.6,18.3,19.6,19.8,7.2,1,14.5,1.3,21.5-1.5,3.9-1.5,7.1-3.9,7.7-8.4.7-5-1.5-8.8-5.6-11.5-6.1-4.1-13.2-5.4-20.1-6.8-13.6-2.8-27.5-4.1-40.5-9.1-7.4-2.9-14.4-6.5-18.9-13.5-9.2-14.4-5.1-36.7,8.5-47.6,9.5-7.5,20.6-10.8,32.2-12.5,13.7-1.9,27.5-2.4,41.2-.2,14.5,2.3,27.9,7.1,38,18.5,5.8,6.7,9.2,14.5,10.6,23.2.4,2.2-.3,2.5-2.3,2.5-13.7,0-27.3,0-41,0-2.2,0-3.1-.8-3.5-2.9-1.2-5.1-4.4-8.7-9.1-10.8-7.8-3.4-15.8-3.8-23.7-.2-1.6.7-3.1,1.7-4.4,2.8-5.7,5.1-4.4,12,2.7,14.7,5.5,2.1,11.4,2.9,17.2,3.9,12.1,1.9,24.3,3.6,35.9,7.8,11.7,4.2,22.3,10.2,27.3,22.5,7.9,19.4,4.4,47.5-26.6,57.2-18.9,5.9-38.2,6.3-57.6,4-11.4-1.4-22.3-4.6-32.1-10.7-15.2-9.5-22.3-23.8-24.1-41.2-.2-2.1,1.1-1.8,2.3-1.8,7.2,0,14.3,0,21.4,0h0Z"/>
  <path class="cls-1" d="M539,199.9c-12.3,10.2-24.4,20.7-35,32.8-31.1,35.3-50.6,76.2-58,122.6-5.5,34.9-3.6,69.6,5.9,103.8,10.1,36.1,27.8,68,52.5,96,10.3,11.7,21.8,22,34,31.7h.1c.2.3.4.5.6.6.3.5,1.3,1.2.7,1.4-5.2,1.8-8.9,5.8-13.5,8.5-12.1-10.3-24-20.8-34.6-32.8-16.5-18.8-30-39.4-40.5-62-8.8-18.8-15.3-38.3-19.3-58.7-6.3-32.2-6.5-64.4-.7-96.6,5.9-32.6,17.8-62.8,35.2-90.8,15.3-24.7,34.5-46,57.1-64.1.8-.6,1.5-1.3,2.2-2,3.8,1.6,7.1,4.1,10.2,6.7,1,.9,2.8,1.2,3,2.9h0Z"/>
  <polygon class="cls-1" points="538.6 586.8 538.5 586.7 538.6 586.6 538.6 586.8"/>
</svg>