<?xml version="1.0" encoding="UTF-8"?>
<svg id="Layer_1" data-name="Layer 1" xmlns="http://www.w3.org/2000/svg" viewBox="0 0 1080 1080">
  <defs>
    <style>
      .cls-1 {
        fill: #5d6b8a;
      }

      .cls-2 {
        fill: #d36e7a;
      }

      .cls-3 {
        fill: #f07980;
      }

      .cls-4 {
        fill: #5d6b89;
      }
    </style>
  </defs>
  <path class="cls-1" d="m184.77,832.77c-.02-55.68,47.59-107.72,107.43-109.67,60.64-1.97,113.34,48.03,114.21,110.52.81,57.95-48.89,108.92-107.27,110.94-61.08,2.11-114.45-49.6-114.37-111.8Zm47.74.25c-.58,33.41,29.81,64.47,63.61,64.14,33.19-.32,63.28-30.94,62.88-63.9-.41-33.87-30.71-63.35-64.01-62.99-33.79.37-63.32,31.84-62.49,62.75Z"/>
  <path class="cls-3" d="m540.56,607.54c-6.86,2.85-12.53,7.69-18.98,11.28-25.96,14.44-53.44,24.44-82.71,29.56-17.84,3.12-35.81,4.28-53.89,3.64-33.43-1.18-65.41-8.6-95.97-22.3-20.69-9.27-39.92-20.97-57.44-35.29-19.38-15.85-36.28-34.08-50.45-54.82-19.91-29.14-33.45-60.94-40.37-95.53-4.22-21.09-5.87-42.44-4.67-63.91,1.98-35.3,10.51-69,26.18-100.73,15.21-30.81,35.91-57.59,61.71-80.22,35.02-30.71,75.46-50.69,121.24-59.63,26.64-5.2,53.44-5.85,80.39-2.76,33.03,3.78,63.97,14.05,93.17,29.75,6.28,3.38,12.45,7,18.3,11.11,1.24.87,2.44,1.78,4.08,1.64-.07.7-1.8.82-1.12,1.03,5.63,1.72,9.15,6.56,14.1,9.22,9.01,8.09,18.27,15.88,26.68,24.66,12.34,12.9,23.5,26.73,32.9,41.82,19.58,31.41,31.94,65.55,37.02,102.3,3.47,25.11,3.1,50.23-.67,75.18-3.3,21.83-9.56,42.91-18.49,63.21-13.9,31.57-33.12,59.29-58.07,83.13-6.33,6.05-13.31,11.32-19.51,17.5-4.21,3.75-9.8,5.69-13.44,10.19Zm-1.39-20.19c1.75-.06,2.98-1.14,4.27-2.15,18.3-14.4,34.28-30.94,47.89-49.9,23.53-32.78,38.04-69.02,43.51-109,3.17-23.13,3.06-46.23-.46-69.22-5.61-36.67-18.96-70.39-40.12-100.97-12.83-18.54-27.99-34.94-45.24-49.38-3.07-2.57-5.78-5.91-10.03-6.85-.23-1.72-2.01-2.03-3.01-2.89-3.07-2.65-6.33-5.16-10.17-6.71-.33-.9-1.15-1.26-1.89-1.73-17.5-11.21-36.15-19.99-55.96-26.25-29.95-9.46-60.58-12.87-91.94-10.61-27.14,1.95-53.19,8.21-78.03,19.09-43.15,18.88-77.98,47.93-104.61,86.86-15.88,23.22-27.18,48.51-34.07,75.64-7.97,31.37-9.61,63.18-4.94,95.34,4.2,28.98,13.23,56.3,27.31,81.84,16.65,30.19,38.68,55.94,66.32,76.69,18.53,13.91,38.58,25.17,60.26,33.39,19.74,7.49,40.16,12.39,61.21,14.33,15.35,1.42,30.71,1.63,46.12.29,13.5-1.18,26.85-3.17,39.91-6.6,25.25-6.63,48.93-16.97,70.83-31.25,4.59-2.7,8.32-6.75,13.52-8.54.59-.2-.38-.96-.67-1.44Z"/>
  <path class="cls-1" d="m464.85,817.76c2.54-2.58,4.94-5.25,7.83-7.41,8.53-6.36,18.15-9.73,28.64-11.07,32.39-4.13,58.48,12.39,71.56,38.75,15.1,30.42,9.26,64.55-15.18,87.93-16.87,16.14-37.41,21.54-60.3,17.57-12.03-2.09-23.26-6.13-31.3-16.14-.39-.49-.78-1.08-1.49-.79-.67.27-.71.96-.71,1.6,0,3.38-.11,6.77.08,10.15.14,2.49-.91,3.43-3.23,3.42-13.91-.02-27.82-.03-41.73-.01-1.68,0-2.62-.59-2.5-2.41.06-.87,0-1.75,0-2.63,0-75.95.02-151.91-.08-227.86,0-3.5.82-4.85,4.55-4.79,13.03.21,26.07.17,39.1.06,2.91-.02,3.89.86,3.88,3.83-.09,35.22-.06,70.44-.06,105.66,0,1.34-.43,2.77.91,4.15Zm32.29,19.6c-17.77-.06-33.1,15.2-33.19,33.02-.1,20.35,14.07,35.98,32.77,36.15,18.22.17,34.15-15.65,33.74-34.16-.49-21.73-16.92-35.48-33.32-35.02Z"/>
  <path class="cls-2" d="m554.14,189.56c-4.95-2.66-8.46-7.5-14.1-9.22-.68-.21,1.05-.33,1.12-1.03,14.29-10.08,29.67-18.16,45.82-24.79,29.37-12.06,59.83-18.5,91.68-19.38,51.07-1.41,98.26,11.32,141.81,37.53,33.91,20.42,61.31,47.76,82.76,81.06,21.17,32.87,34.27,68.67,39.01,107.47,4.98,40.83.99,80.79-13.06,119.51-12.09,33.34-30.14,63.13-54.47,89.12-28.54,30.49-62.47,52.72-101.54,67.1-22.56,8.3-45.94,13.06-69.98,14.62-30.82,2-61.05-1.05-90.64-9.88-23.65-7.06-45.95-17.16-66.67-30.63-1.78-1.16-3.55-2.34-5.33-3.51,3.64-4.5,9.23-6.44,13.44-10.19,10.61,6.91,21.68,12.96,33.24,18.14,30.51,13.65,62.59,20.19,95.87,20.73,14.77.24,29.51-1.13,44.12-3.56,23.4-3.89,45.7-11.17,66.81-21.9,24.27-12.34,46.12-27.98,65.22-47.59,21.8-22.38,38.57-47.95,50.64-76.62,10.14-24.07,15.85-49.21,17.65-75.32,1.57-22.78.41-45.38-4.36-67.63-7.93-36.9-23.48-70.35-46.99-100.06-14.48-18.31-31.16-34.22-50.18-47.71-32.57-23.09-68.54-37.53-108.2-42.75-27.45-3.61-54.77-2.78-81.82,2.81-29.33,6.07-56.72,17.23-81.87,33.66Z"/>
  <path class="cls-4" d="m700.17,818.15c0-4.08.15-8.17-.05-12.24-.13-2.67.84-3.36,3.41-3.34,13.41.12,26.82.16,40.23-.02,3.16-.04,3.9.88,3.89,3.95-.09,41.99-.06,83.97-.05,125.96,0,2.26-.14,4.52.04,6.76.18,2.22-.72,2.72-2.79,2.71-14.04-.07-28.07-.06-42.11.02-1.96.01-2.64-.62-2.6-2.58.11-4.32.03-8.65.03-13.01-1.92,1.71-3.65,3.24-5.38,4.77-10.77,9.53-23.85,12.87-37.71,13.72-36.08,2.21-65.88-23.05-72.63-58.63-6.35-33.5,9.62-66.52,39.29-80.32,24.35-11.33,48.38-9.81,70.25,7.24,1.94,1.51,3.33,3.73,4.97,5.62.4-.2.79-.4,1.19-.6Zm-.04,54.21c.08-19.07-14.78-34.92-32.82-35.01-18.28-.09-33.39,15.39-33.51,34.32-.13,19.49,14.73,35.37,33.21,35.48,17.88.11,33.05-15.82,33.13-34.79Z"/>
  <path class="cls-4" d="m776.74,889.97c6.9,0,13.79,0,20.69.01,1.19,0,2.64-.39,2.67,1.63.2,12.24,8.57,18.34,19.59,19.85,7.22.99,14.51,1.33,21.5-1.46,3.88-1.55,7.12-3.92,7.73-8.4.67-4.96-1.5-8.75-5.56-11.5-6.08-4.11-13.15-5.38-20.12-6.81-13.58-2.78-27.49-4.09-40.54-9.13-7.44-2.87-14.43-6.49-18.93-13.51-9.2-14.37-5.14-36.71,8.51-47.61,9.45-7.55,20.58-10.81,32.19-12.45,13.68-1.94,27.47-2.37,41.19-.15,14.51,2.35,27.93,7.07,37.98,18.53,5.84,6.66,9.15,14.52,10.6,23.23.36,2.15-.3,2.54-2.26,2.53-13.67-.07-27.33-.09-41,.01-2.22.02-3.09-.84-3.55-2.86-1.18-5.13-4.42-8.71-9.12-10.77-7.8-3.41-15.76-3.82-23.65-.2-1.57.72-3.11,1.68-4.39,2.84-5.65,5.14-4.38,12,2.74,14.7,5.53,2.1,11.37,2.93,17.18,3.86,12.1,1.94,24.29,3.57,35.89,7.77,11.72,4.24,22.28,10.23,27.29,22.46,7.94,19.39,4.42,47.47-26.56,57.17-18.89,5.92-38.17,6.34-57.63,3.95-11.43-1.4-22.29-4.56-32.12-10.71-15.21-9.5-22.28-23.8-24.08-41.19-.22-2.14,1.13-1.81,2.32-1.81,7.15-.02,14.29,0,21.44,0Z"/>
  <path class="cls-2" d="m538.99,199.89c-12.35,10.21-24.42,20.71-35.05,32.77-31.11,35.29-50.6,76.18-57.95,122.57-5.53,34.91-3.59,69.59,5.94,103.79,10.06,36.12,27.78,67.97,52.52,96.01,10.3,11.67,21.84,22.03,34.04,31.66,0,0,.11.1.11.1.19.18.39.37.58.55.29.48,1.26,1.24.67,1.44-5.2,1.79-8.93,5.84-13.52,8.54-12.12-10.3-24.04-20.78-34.57-32.77-16.46-18.76-29.96-39.42-40.52-62.02-8.77-18.78-15.33-38.3-19.31-58.66-6.29-32.17-6.54-64.36-.71-96.65,5.88-32.57,17.82-62.77,35.22-90.79,15.3-24.66,34.52-45.96,57.15-64.15.77-.62,1.48-1.33,2.22-2,3.84,1.55,7.11,4.06,10.18,6.71,1,.86,2.77,1.18,3.01,2.89Z"/>
  <polygon class="cls-3" points="538.59 586.79 538.48 586.69 538.62 586.59 538.59 586.79"/>
</svg>