<!-- License: Apache. Made by Richard9394: https://github.com/Richard9394/MingCute -->
<svg width="800px" height="800px" viewBox="0 0 24 24" xmlns="http://www.w3.org/2000/svg">
  <g fill="#ffffff" stroke="none" stroke-width="1">
    <path d="M24 0v24H0V0h24z" fill="#ffffff"/>
    <path d="M12 2C6.477 2 2 6.477 2 12c0 1.89.525 3.66 1.438 5.17L2.546 20.2c-.226.767.486 1.479 1.253 1.254l3.032-.892C8.341 21.475 10.11 22 12 22c5.523 0 10-4.477 10-10S17.523 2 12 2zm-2.262 12.263c2.023 2.023 3.954 2.29 4.636 2.315 1.037.038 2.046-.754 2.44-1.673.096-.225.072-.496-.09-.703-.547-.701-1.288-1.204-2.012-1.703-.312-.217-.742-.15-.973.156l-.6.915c-.066.102-.198.137-.304.077-.407-.233-1-.63-1.426-1.056-.426-.426-.798-.992-1.007-1.372-.055-.1-.024-.224.067-.292l.924-.685c.275-.238.324-.643.121-.94-.448-.656-.97-1.49-1.726-2.042-.207-.15-.468-.167-.684-.074-.92.394-1.716 1.404-1.678 2.443.025.682.292 2.613 2.315 4.636z" fill="#fbbf24"/>
  </g>
</svg>
